<?xml version="1.0" standalone="no"?><!DOCTYPE svg PUBLIC "-//W3C//DTD SVG 1.1//EN" "http://www.w3.org/Graphics/SVG/1.1/DTD/svg11.dtd"><svg t="1702002072630" class="icon" viewBox="0 0 1024 1024" version="1.1" xmlns="http://www.w3.org/2000/svg" p-id="16212" xmlns:xlink="http://www.w3.org/1999/xlink" width="128" height="128"><path d="M264.084211 382.652632a234.442105 118.568421 0 1 0 468.88421 0 234.442105 118.568421 0 1 0-468.88421 0Z" fill="#10ABFF" opacity=".4" p-id="16213"></path><path d="M916.210526 547.031579l-13.473684-26.947368-53.894737-107.789474c2.694737-18.863158 8.084211-88.926316 0-132.042105-43.115789-150.905263-180.547368-242.526316-358.4-242.526316-105.094737 0-207.494737 43.115789-282.947368 118.568421-70.063158 72.757895-107.789474 169.768421-105.094737 269.473684C105.094737 503.915789 134.736842 582.063158 188.631579 646.736842c26.947368 40.421053 59.284211 91.621053 51.2 142.821053-5.389474 37.726316-45.810526 140.126316-59.284211 175.157894-2.694737 5.389474-2.694737 13.473684 2.694737 18.863158 2.694737 5.389474 8.084211 8.084211 16.168421 8.084211h363.789474c5.389474 0 10.778947-2.694737 13.473684-8.084211 35.031579-51.2 97.010526-86.231579 167.073684-91.621052 8.084211 0 16.168421-5.389474 16.168421-16.168421 0 0 26.947368-123.957895 43.11579-161.684211 8.084211-18.863158 40.421053-64.673684 56.589474-86.231579l40.421052-16.168421c10.778947-2.694737 16.168421-10.778947 18.863158-21.557895 10.778947-18.863158-2.694737-43.115789-2.694737-43.115789z m-29.642105 29.642105l-45.810526 16.168421c-2.694737 0-5.389474 2.694737-8.084211 5.389474-5.389474 8.084211-51.2 70.063158-64.673684 97.010526-13.473684 32.336842-35.031579 121.263158-43.115789 156.294737-70.063158 8.084211-134.736842 45.810526-175.157895 97.010526H223.663158c16.168421-40.421053 45.810526-121.263158 51.2-158.989473 8.084211-67.368421-29.642105-129.347368-59.284211-172.463158 0 2.694737 0 2.694737-2.694736 0-45.810526-59.284211-72.757895-129.347368-75.452632-196.71579-2.694737-88.926316 32.336842-172.463158 94.315789-239.831579 67.368421-67.368421 158.989474-107.789474 256-107.789473 126.652632 0 277.557895 56.589474 323.368421 215.578947 8.084211 43.115789 0 123.957895 0 123.957895 0 2.694737 0 8.084211 2.694737 10.778947 0 0 64.673684 132.042105 70.063158 142.821053 0 2.694737 2.694737 8.084211 2.694737 10.778947z" fill="#10ABFF" p-id="16214"></path><path d="M493.136842 245.221053c-97.010526 0-191.326316 48.505263-247.915789 126.652631-5.389474 5.389474-5.389474 16.168421 0 21.557895 59.284211 80.842105 150.905263 126.652632 247.915789 126.652632 97.010526 0 191.326316-48.505263 247.91579-126.652632 5.389474-5.389474 5.389474-16.168421 0-21.557895-59.284211-80.842105-150.905263-126.652632-247.91579-126.652631z m0 237.136842c-80.842105 0-158.989474-37.726316-210.189474-99.705263 51.2-61.978947 129.347368-99.705263 210.189474-99.705264s158.989474 37.726316 210.189474 99.705264c-51.2 61.978947-129.347368 99.705263-210.189474 99.705263z" fill="#10ABFF" p-id="16215"></path><path d="M493.136842 317.978947c-35.031579 0-64.673684 29.642105-64.673684 64.673685s29.642105 64.673684 64.673684 64.673684 64.673684-29.642105 64.673684-64.673684-29.642105-64.673684-64.673684-64.673685z m0 91.621053c-16.168421 0-26.947368-13.473684-26.947368-26.947368s13.473684-26.947368 26.947368-26.947369 26.947368 13.473684 26.947369 26.947369-13.473684 26.947368-26.947369 26.947368z" fill="#10ABFF" p-id="16216"></path></svg>