<?xml version="1.0" standalone="no"?><!DOCTYPE svg PUBLIC "-//W3C//DTD SVG 1.1//EN" "http://www.w3.org/Graphics/SVG/1.1/DTD/svg11.dtd"><svg t="1699515522911" class="icon" viewBox="0 0 1024 1024" version="1.1" xmlns="http://www.w3.org/2000/svg" p-id="59822" xmlns:xlink="http://www.w3.org/1999/xlink" width="128" height="128"><path d="M683.9296 383.488a25.856 25.856 0 0 1 5.8368 22.8352c1.6384-9.1648 0-16.896-5.8368-22.8352z" fill="#000000" p-id="59823"></path><path d="M1019.5456 113.152A113.152 113.152 0 0 0 906.3936 0H114.0224a113.152 113.152 0 0 0-113.152 113.152v792.3712c0 62.5152 50.688 113.2032 113.152 113.2032h792.3712a113.152 113.152 0 0 0 113.152-113.152V113.152z m-434.0224 490.24c12.1344-20.3264 29.5424-40.704 47.0016-62.7712 26.9312-33.3312 93.4912-110.848 116.224-158.9248 4.1984-9.0112 6.8096-17.5104 7.8848-24.8832 2.6624-43.008-48.64-59.904-124.672-82.5344l-14.7968 9.5744 28.5696 24.8832c-128.3584 24.32-205.4656 49.7664-299.008 84.8384l13.2608 35.6352-47.0016 49.2032c7.8848 1.6896 89.7536 31.1296 174.2848-32.256l0.512-0.512 1.024-1.1264c-2.56-4.5568-7.8848-9.3696-15.3088-15.616 25.3952 1.6896 40.704 14.9504 38.0416 50.0224h-11.0592c0.512 0-0.8704-16.64-2.9696-22.8864-65.536 52.0704-141.312 58.5728-206.336 34.304v61.0304c-33.8944 11.8784-87.8592 49.2032-87.8592 84.8384 2.048 17.5616 9.6768 23.7568 17.5616 28.2624 71.8336 43.52 266.0352-15.8208 265.5232-15.8208-69.7344 38.4512-139.008 69.0176-241.5104 73.5232-135.68-2.816-155.2896-99.5328-92.4672-200.192C213.1968 420.1472 308.736 329.6768 461.4144 271.9744c44.3392-16.9472 109.312-35.6352 172.1856-37.3248 90.3168 0 177.9712 28.8768 172.1344 122.1632-4.1984 71.8336-98.2016 170.24-148.9408 242.6368-22.1696 31.1296-25.856 52.5824 11.6224 49.7664 132.608-9.0624 190.6176-58.2656 303.104-109.7216-77.1072 54.8864-404.48 263.5776-407.1424 121.6 0.512-17.5104 7.3728-36.7616 21.1456-57.7024z" fill="#FD4E00" p-id="59824"></path></svg>