<?xml version="1.0" standalone="no"?><!DOCTYPE svg PUBLIC "-//W3C//DTD SVG 1.1//EN" "http://www.w3.org/Graphics/SVG/1.1/DTD/svg11.dtd"><svg t="1699515856953" class="icon" viewBox="0 0 1024 1024" version="1.1" xmlns="http://www.w3.org/2000/svg" p-id="61920" xmlns:xlink="http://www.w3.org/1999/xlink" width="128" height="128"><path d="M900.096 100.352l56.32-91.648h-190.464c-31.744 0-60.928 16.384-77.312 43.008l-141.824 230.912c-9.216 14.848-9.216 33.28 0 48.128l53.248 86.528 180.224-292.864h76.288c17.92 0 34.304-9.216 43.52-24.064zM766.464 1015.296h190.464l-56.32-91.648c-9.216-14.848-25.6-24.064-43.52-24.064h-76.288l-180.224-293.376-53.248 86.528c-9.216 14.848-9.216 33.28 0 48.128l141.824 230.912c16.384 27.136 45.568 43.52 77.312 43.52z" fill="#999999" p-id="61921"></path><path d="M179.2 8.704H68.608L377.856 512l-309.248 503.296H179.2c31.744 0 60.928-16.384 77.312-43.008l251.904-410.112c18.944-30.72 18.944-69.12 0-99.328L256.512 51.712c-16.384-26.624-46.08-43.008-77.312-43.008z" fill="#00DD99" p-id="61922"></path></svg>