<?xml version="1.0" standalone="no"?><!DOCTYPE svg PUBLIC "-//W3C//DTD SVG 1.1//EN" "http://www.w3.org/Graphics/SVG/1.1/DTD/svg11.dtd"><svg t="1702001707375" class="icon" viewBox="0 0 1024 1024" version="1.1" xmlns="http://www.w3.org/2000/svg" p-id="11932" width="128" height="128" xmlns:xlink="http://www.w3.org/1999/xlink"><path d="M108.544 121.6512h809.7792c54.6816 0 98.9184 44.2368 98.9184 98.9184v593.92c0 54.6816-44.2368 98.9184-98.9184 98.9184H108.544c-54.6816 0-98.9184-44.2368-98.9184-98.9184v-593.92c0-54.4768 44.4416-98.9184 98.9184-98.9184z" fill="#00A1FF" p-id="11933"></path><path d="M441.1392 225.0752l-157.4912-45.8752v563.4048l157.696-138.0352-0.2048-379.4944z m-157.696 517.5296l157.4912 113.664 384.6144-225.6896v-179.2L283.4432 742.6048zM486.6048 347.7504l75.3664 158.1056 91.9552 37.6832 171.6224-92.3648-335.0528-103.424h-3.8912z" fill="#FFFFFF" p-id="11934"></path></svg>