<?xml version="1.0" standalone="no"?><!DOCTYPE svg PUBLIC "-//W3C//DTD SVG 1.1//EN" "http://www.w3.org/Graphics/SVG/1.1/DTD/svg11.dtd"><svg t="1699515140151" class="icon" viewBox="0 0 1024 1024" version="1.1" xmlns="http://www.w3.org/2000/svg" p-id="53905" xmlns:xlink="http://www.w3.org/1999/xlink" width="128" height="128"><path d="M743.619048 86.552381h-463.238096a24.380952 24.380952 0 0 0-20.967619 12.190476L27.794286 499.809524a24.380952 24.380952 0 0 0 0 24.380952l231.619047 402.285714a24.380952 24.380952 0 0 0 20.967619 12.190477h463.238096a24.380952 24.380952 0 0 0 20.967619-12.190477l231.619047-401.066666a24.380952 24.380952 0 0 0 0-24.380953l-231.619047-402.285714a24.380952 24.380952 0 0 0-20.967619-12.190476z" fill="#FFFFFF" p-id="53906"></path><path d="M743.619048 961.828571h-463.238096a48.761905 48.761905 0 0 1-42.179047-24.380952L6.582857 536.380952a48.761905 48.761905 0 0 1 0-48.761904l231.619048-401.066667a48.761905 48.761905 0 0 1 42.179047-24.380952h463.238096a48.761905 48.761905 0 0 1 42.179047 24.380952L1017.417143 487.619048a48.761905 48.761905 0 0 1 0 48.761904l-231.619048 401.066667a48.761905 48.761905 0 0 1-42.179047 24.380952z m-463.238096-850.895238L48.761905 512l231.619047 401.066667h463.238096L975.238095 512 743.619048 110.933333h-463.238096z" p-id="53907"></path><path d="M350.110476 236.982857m24.380953 0l0 0q24.380952 0 24.380952 24.380953l0 501.51619q0 24.380952-24.380952 24.380952l0 0q-24.380952 0-24.380953-24.380952l0-501.51619q0-24.380952 24.380953-24.380953Z" fill="#FF7A59" p-id="53908"></path><path d="M364.353107 511.830328m17.239936-17.239936l0 0q17.239937-17.239937 34.479874 0l250.84108 250.841079q17.239937 17.239937 0 34.479874l0 0q-17.239937 17.239937-34.479874 0l-250.84108-250.84108q-17.239937-17.239937 0-34.479873Z" fill="#FF7A59" p-id="53909"></path><path d="M536.380952 512h-186.270476V260.632381a36.815238 36.815238 0 0 1 36.815238-37.302857H536.380952a142.140952 142.140952 0 0 1 139.946667 144.091428A142.140952 142.140952 0 0 1 536.380952 512z m-137.508571-48.761905H536.380952a93.379048 93.379048 0 0 0 91.184762-95.573333A93.135238 93.135238 0 0 0 536.380952 272.091429h-137.508571z" fill="#FF7A59" p-id="53910"></path></svg>