<?xml version="1.0" standalone="no"?><!DOCTYPE svg PUBLIC "-//W3C//DTD SVG 1.1//EN" "http://www.w3.org/Graphics/SVG/1.1/DTD/svg11.dtd"><svg t="1699519195721" class="icon" viewBox="0 0 1024 1024" version="1.1" xmlns="http://www.w3.org/2000/svg" p-id="79751" xmlns:xlink="http://www.w3.org/1999/xlink" width="128" height="128"><path d="M512 0C229.376 0 0 229.376 0 512s229.376 512 512 512 512-229.376 512-512S794.624 0 512 0z m0 1003.52C240.64 1003.52 20.48 783.36 20.48 512S240.64 20.48 512 20.48s491.52 220.16 491.52 491.52-220.16 491.52-491.52 491.52z" fill="#00A0F0" p-id="79752"></path><path d="M599.04 705.536c-29.696 14.336-61.44 24.576-93.184 21.504-80.896 4.096-151.552-45.056-182.272-111.616-33.792-73.728-27.648-145.408 20.48-210.944 46.08-61.44 110.592-86.016 186.368-76.8 37.888 4.096 70.656 20.48 100.352 45.056 15.36 13.312 15.36 19.456-2.048 29.696-15.36 9.216-30.72 17.408-45.056 26.624-41.984 24.576-83.968 49.152-124.928 74.752-22.528 13.312-26.624 35.84-14.336 58.368 13.312 24.576 38.912 29.696 66.56 14.336 80.896-47.104 162.816-95.232 243.712-143.36 13.312-8.192 15.36-15.36 9.216-28.672-21.504-46.08-52.224-84.992-94.208-113.664-92.16-63.488-190.464-73.728-290.816-25.6-100.352 48.128-154.624 132.096-163.84 242.688-7.168 92.16 26.624 169.984 92.16 233.472 91.136 89.088 243.712 103.424 349.184 31.744 27.648-18.432 27.648-18.432 10.24-47.104-17.408-30.72-34.816-35.84-67.584-20.48z" fill="#00A0F0" p-id="79753"></path><path d="M750.592 535.552c-19.456 10.24-37.888 21.504-57.344 31.744-8.192 4.096-9.216 9.216-5.12 17.408 11.264 17.408 21.504 35.84 31.744 53.248 4.096 8.192 10.24 9.216 17.408 5.12 11.264-7.168 23.552-13.312 34.816-21.504 10.24-7.168 15.36-16.384 15.36-28.672-2.048-21.504-13.312-38.912-23.552-56.32-3.072-6.144-8.192-4.096-13.312-1.024z" fill="#00A0F0" p-id="79754"></path></svg>