<?xml version="1.0" standalone="no"?><!DOCTYPE svg PUBLIC "-//W3C//DTD SVG 1.1//EN" "http://www.w3.org/Graphics/SVG/1.1/DTD/svg11.dtd"><svg t="1699516666895" class="icon" viewBox="0 0 1024 1024" version="1.1" xmlns="http://www.w3.org/2000/svg" p-id="66880" xmlns:xlink="http://www.w3.org/1999/xlink" width="128" height="128"><path d="M590.222222 79.644444L859.022222 347.943822V881.777778c0 37.700267-30.5664 68.266667-68.266666 68.266666H233.244444c-37.700267 0-68.266667-30.5664-68.266666-68.266666V147.911111c0-37.700267 30.5664-68.266667 68.266666-68.266667h356.977778z m-11.764622 28.444445H233.244444a39.822222 39.822222 0 0 0-39.799466 38.456889L193.422222 147.911111v733.866667a39.822222 39.822222 0 0 0 38.456889 39.799466L233.244444 921.6h557.511112a39.822222 39.822222 0 0 0 39.799466-38.456889L830.577778 881.777778V359.742578L578.4576 108.088889z" fill="#08979C" p-id="66881"></path><path d="M854.755556 376.337067h-215.1424c-45.528178 0-82.551467-36.431644-83.5072-81.737956l-0.017067-1.792V79.644444h28.444444v213.162667c0 29.895111 23.819378 54.232178 53.515378 55.062756l1.564445 0.022755h215.1424v28.444445z" fill="#08979C" p-id="66882"></path><path d="M56.888889 494.933333m28.444444 0l853.333334 0q28.444444 0 28.444444 28.444445l0 284.444444q0 28.444444-28.444444 28.444445l-853.333334 0q-28.444444 0-28.444444-28.444445l0-284.444444q0-28.444444 28.444444-28.444445Z" fill="#08979C" p-id="66883"></path><path d="M424.863289 765.895111c42.746311 0 62.464-30.72 62.464-68.096v-126.208h-45.824v122.624c0 24.832-7.936 32.256-22.784 32.256-9.216 0-18.944-5.888-25.6-18.944l-30.976 23.296c13.568 23.552 33.024 35.072 62.72 35.072zM589.215289 765.895111c46.08 0 72.704-27.904 72.704-59.648 0-26.88-14.08-42.752-37.632-52.224l-23.813689-9.472c-16.896-6.656-28.672-10.752-28.672-21.504 0-9.984 8.453689-15.616 22.528-15.616 14.848 0 26.624 5.12 39.173689 14.592l22.778311-28.672c-16.634311-16.64-39.936-25.088-61.952-25.088-40.448 0-69.12 25.6-69.12 57.6 0 27.648 18.688 44.288 38.661689 52.224l24.32 10.24c16.384 6.912 26.88 10.496 26.88 21.504 0 10.24-7.936 16.64-24.832 16.64-15.109689 0-32.768-7.936-46.08-19.456l-26.112 31.488c19.712 18.176 46.330311 27.392 71.168 27.392z" fill="#FFFFFF" p-id="66884"></path></svg>