<?xml version="1.0" standalone="no"?><!DOCTYPE svg PUBLIC "-//W3C//DTD SVG 1.1//EN" "http://www.w3.org/Graphics/SVG/1.1/DTD/svg11.dtd"><svg t="1712123692900" class="icon" viewBox="0 0 1024 1024" version="1.1" xmlns="http://www.w3.org/2000/svg" p-id="4299" xmlns:xlink="http://www.w3.org/1999/xlink" width="128" height="128"><path d="M731.062857 590.262857v318.317714h-148.589714V443.977143a146.285714 146.285714 0 0 1-146.285714 146.285714l-214.491429-0.036571v318.354285H73.142857V165.814857h148.553143v275.858286h180.882286l119.771428-275.858286h167.753143l-67.84 156.269714a255.524571 255.524571 0 0 1-106.678857 119.588572h66.925714a148.553143 148.553143 0 0 1 148.516572 148.589714z m120.758857-473.965714a99.035429 99.035429 0 0 1 0 198.070857h-99.035428V215.332571a99.035429 99.035429 0 0 1 99.035428-99.035428z" fill="#444444" p-id="4300"></path></svg>