<?xml version="1.0" standalone="no"?><!DOCTYPE svg PUBLIC "-//W3C//DTD SVG 1.1//EN" "http://www.w3.org/Graphics/SVG/1.1/DTD/svg11.dtd"><svg t="1699515046659" class="icon" viewBox="0 0 1024 1024" version="1.1" xmlns="http://www.w3.org/2000/svg" p-id="52921" xmlns:xlink="http://www.w3.org/1999/xlink" width="128" height="128"><path d="M820.98176 288.21504l57.344-55.1424v-12.07296H679.60832l-141.64992 354.304-161.1264-354.304H168.42752v12.07296l67.03104 81.08032a28.416 28.416 0 0 1 9.08288 23.552V656.384a36.20864 36.20864 0 0 1-9.64608 31.54944l-75.55072 92.02688v11.89888h214.016v-12.0832l-75.4688-91.7504a37.4272 37.4272 0 0 1-10.38336-31.54944v-275.6608l187.904 411.1872h21.8112l161.5872-411.1872v327.5776c0 8.61184 0 10.3936-5.61152 16.10752l-58.14272 56.45312v12.07296H877.056v-12.07296l-56.07424-55.1424a16.92672 16.92672 0 0 1-6.36928-16.10752V304.32256a16.95744 16.95744 0 0 1 6.36928-16.10752z m0 0" fill="#F3B157" p-id="52922"></path></svg>