<?xml version="1.0" standalone="no"?><!DOCTYPE svg PUBLIC "-//W3C//DTD SVG 1.1//EN" "http://www.w3.org/Graphics/SVG/1.1/DTD/svg11.dtd"><svg t="1699518663293" class="icon" viewBox="0 0 1024 1024" version="1.1" xmlns="http://www.w3.org/2000/svg" p-id="71541" xmlns:xlink="http://www.w3.org/1999/xlink" width="128" height="128"><path d="M750.8 0H68.4C30.4 0 0 28.8 0 64v896c0 35.2 30.4 64 68.4 64H956c37.6 0 68.4-28.8 68.4-64V256L750.8 0z" fill="#474747" p-id="71542"></path><path d="M750.8 0v192c0 35.2 30.4 64 68.4 64H1024L750.8 0z" fill="#9B9B9B" p-id="71543"></path><path d="M558.8 864.4c-7.6-2-14.8-3.6-21.6-6-86-28.4-160-76-224-139.2-3.6-3.6-4.4-6.8-2.4-11.2 9.2-23.2 18-46.8 26.8-70 0.8-2.4 1.6-5.2 2.8-8.8H241.2c24.4-26 47.6-50.8 72.4-77.2H191.6c-0.4-0.8-0.8-1.2-0.8-2 22.8-24.4 45.6-48.8 68.8-73.2-0.4-0.8-0.8-1.2-1.2-2H144c2.4-3.2 3.2-4.8 4.8-6 40.4-42.8 80.4-86 121.2-128.4C311.6 296.8 362.4 269.6 421.2 256c38-8.8 75.2-2.8 111.6 10 16 5.6 33.2 9.6 50 12.8 8.8 1.6 18.4 0 27.6-1.6 14.4-2.4 28.8-4 43.2-0.4 28.4 6.8 45.6 24.4 50 53.6 3.2 20 13.6 35.2 31.6 43.2 29.6 13.6 60 25.6 90 38.4 9.6 4 19.6 7.6 28.8 12 16.4 7.6 25.2 20.4 26.4 38.4 0.8 13.2 2.4 26.4 2.8 39.2 1.2 21.2-4 41.2-14 60.4-3.2 6.4-7.2 12.4-10 18.8-4.8 10-13.2 14-23.6 14.8-5.2 0.4-10.8 2-15.2 4.4-8 4.4-15.6 9.2-23.2 14.4-17.2 11.6-35.2 13.6-54.8 6-25.2-10-51.6-14.4-78.8-14.4-41.2-0.4-75.2 24.4-85.2 64.4-6 24.4-9.2 49.6-11.6 74.4-3.6 39.2-5.2 78.4-8 119.6z" fill="#FFFFFF" p-id="71544"></path></svg>