<?xml version="1.0" standalone="no"?><!DOCTYPE svg PUBLIC "-//W3C//DTD SVG 1.1//EN" "http://www.w3.org/Graphics/SVG/1.1/DTD/svg11.dtd"><svg t="1699516157711" class="icon" viewBox="0 0 1024 1024" version="1.1" xmlns="http://www.w3.org/2000/svg" p-id="65580" xmlns:xlink="http://www.w3.org/1999/xlink" width="128" height="128"><path d="M512 1015.741935C233.785806 1015.741935 8.258065 790.214194 8.258065 512S233.785806 8.258065 512 8.258065 1015.741935 233.785806 1015.741935 512 790.214194 1015.741935 512 1015.741935z m0-49.548387c250.846968 0 454.193548-203.346581 454.193548-454.193548S762.846968 57.806452 512 57.806452 57.806452 261.153032 57.806452 512 261.153032 966.193548 512 966.193548z" fill="#0069F6" p-id="65581"></path><path d="M542.340129 523.726452a24.658581 24.658581 0 0 1-9.843613 10.53729l-214.544516 123.870968a24.774194 24.774194 0 1 1-24.774194-42.908904l209.754839-121.112774V256a24.774194 24.774194 0 1 1 49.548387 0v247.741935c0 8.208516-3.996903 15.492129-10.140903 19.984517z" fill="#5ED7BC" p-id="65582"></path></svg>