<?xml version="1.0" standalone="no"?><!DOCTYPE svg PUBLIC "-//W3C//DTD SVG 1.1//EN" "http://www.w3.org/Graphics/SVG/1.1/DTD/svg11.dtd"><svg t="1699518944566" class="icon" viewBox="0 0 1024 1024" version="1.1" xmlns="http://www.w3.org/2000/svg" p-id="72791" xmlns:xlink="http://www.w3.org/1999/xlink" width="128" height="128"><path d="M810.666667 644.266667a21.333333 21.333333 0 0 1-21.333334-21.333334V407.466667A256 256 0 0 0 535.466667 149.333333h-46.933334A256 256 0 0 0 234.666667 407.466667v215.466666a23.466667 23.466667 0 0 1-21.333334 21.333334 21.333333 21.333333 0 0 1-21.333333-21.333334V407.466667A298.666667 298.666667 0 0 1 488.533333 106.666667h46.933334A298.666667 298.666667 0 0 1 832 407.466667v215.466666a23.466667 23.466667 0 0 1-21.333333 21.333334zM535.466667 981.333333h-46.933334a285.866667 285.866667 0 0 1-209.066666-87.466666 21.333333 21.333333 0 0 1 29.866666-29.866667 251.733333 251.733333 0 0 0 179.2 74.666667h46.933334a251.733333 251.733333 0 0 0 179.2-74.666667 21.333333 21.333333 0 0 1 29.866666 29.866667 290.133333 290.133333 0 0 1-209.066666 87.466666z" p-id="72792"></path><path d="M729.6 900.266667H294.4a149.333333 149.333333 0 0 1-149.333333-149.333334v-19.2a149.333333 149.333333 0 0 1 149.333333-149.333333h435.2a149.333333 149.333333 0 0 1 149.333333 149.333333v19.2a149.333333 149.333333 0 0 1-149.333333 149.333334zM294.4 625.066667a108.8 108.8 0 0 0-106.666667 106.666666v19.2a106.666667 106.666667 0 0 0 106.666667 106.666667h435.2a106.666667 106.666667 0 0 0 106.666667-106.666667v-19.2a108.8 108.8 0 0 0-106.666667-106.666666zM384 490.666667a85.333333 85.333333 0 1 1 85.333333-85.333334 85.333333 85.333333 0 0 1-85.333333 85.333334z m0-128a42.666667 42.666667 0 1 0 42.666667 42.666666 42.666667 42.666667 0 0 0-42.666667-42.666666zM640 490.666667a85.333333 85.333333 0 1 1 85.333333-85.333334 85.333333 85.333333 0 0 1-85.333333 85.333334z m0-128a42.666667 42.666667 0 1 0 42.666667 42.666666 42.666667 42.666667 0 0 0-42.666667-42.666666z" p-id="72793"></path><path d="M373.333333 808.533333a21.333333 21.333333 0 0 1-21.333333-21.333333v-91.733333a23.466667 23.466667 0 0 1 21.333333-21.333334 21.333333 21.333333 0 0 1 21.333334 21.333334v91.733333a19.2 19.2 0 0 1-21.333334 21.333333zM650.666667 808.533333a19.2 19.2 0 0 1-21.333334-21.333333v-91.733333a21.333333 21.333333 0 0 1 21.333334-21.333334 23.466667 23.466667 0 0 1 21.333333 21.333334v91.733333a21.333333 21.333333 0 0 1-21.333333 21.333333zM228.266667 339.2h-6.4a215.466667 215.466667 0 0 1-145.066667-206.933333 196.266667 196.266667 0 0 1 14.933333-76.8 21.333333 21.333333 0 0 1 19.2-12.8 21.333333 21.333333 0 0 1 19.2 12.8 174.933333 174.933333 0 0 0 164.266667 113.066666h19.2a25.6 25.6 0 0 1 23.466667 19.2 21.333333 21.333333 0 0 1-19.2 23.466667h-23.466667a219.733333 219.733333 0 0 1-174.933333-87.466667v8.533334a172.8 172.8 0 0 0 115.2 164.266666 21.333333 21.333333 0 0 1 12.8 27.733334 21.333333 21.333333 0 0 1-19.2 14.933333zM795.733333 339.2a21.333333 21.333333 0 0 1-19.2-14.933333 21.333333 21.333333 0 0 1 12.8-27.733334 172.8 172.8 0 0 0 115.2-164.266666v-8.533334a219.733333 219.733333 0 0 1-174.933333 87.466667h-23.466667a21.333333 21.333333 0 0 1-19.2-23.466667 23.466667 23.466667 0 0 1 23.466667-19.2h19.2a174.933333 174.933333 0 0 0 164.266667-113.066666 21.333333 21.333333 0 0 1 19.2-12.8 21.333333 21.333333 0 0 1 19.2 12.8 196.266667 196.266667 0 0 1 14.933333 76.8 215.466667 215.466667 0 0 1-145.066667 204.8z" p-id="72794"></path></svg>