<?xml version="1.0" standalone="no"?><!DOCTYPE svg PUBLIC "-//W3C//DTD SVG 1.1//EN" "http://www.w3.org/Graphics/SVG/1.1/DTD/svg11.dtd"><svg t="1699515171146" class="icon" viewBox="0 0 1024 1024" version="1.1" xmlns="http://www.w3.org/2000/svg" p-id="54890" xmlns:xlink="http://www.w3.org/1999/xlink" width="128" height="128"><path d="M37.716387 663.761851c0-83.479876-1.101985-166.985751 0.664991-250.440627 0.536993-25.164661 9.164877-50.149325 13.849814-75.262987 6.399914-34.482536 20.734721-65.919112 36.862503-96.689697 18.969745-36.223512 42.803424-68.838073 70.604049-98.917668a422.752307 422.752307 0 0 1 127.281286-94.385729c26.572642-12.876827 55.090258-22.169701 83.352878-31.077582C418.305262 1.883765 467.789595-2.26318 517.887921 1.089775c46.156378 3.097958 90.750778 13.38882 133.988195 29.874598 49.151338 18.739748 94.129732 45.004394 132.93821 80.126921 24.653668 22.322699 46.669372 47.974354 67.353093 74.111002 30.796585 38.937476 52.069299 83.352878 66.943099 130.71224 19.507737 62.053164 25.420658 125.51431 17.81776 190.05144-9.855867 83.838871-41.241445 159.357854-92.926749 225.76296a440.646066 440.646066 0 0 1-166.857753 131.761226c-42.879423 19.532737-87.525821 33.919543-135.14118 36.939502-17.637762 1.126985-35.276525 4.045946-52.889288 3.839948-36.555508-0.459994-66.482105-14.769801-89.751791-44.107406-42.31643-53.349282-23.551683-131.248233 30.796585-163.887793 18.456751-11.085851 38.117487-15.667789 59.160203-16.102783 72.191028-1.50998 131.326231-30.233593 176.612622-86.245838 23.218687-28.722613 37.400496-61.720169 45.183392-98.225677 8.651883-40.575454 5.16993-80.20292-8.294889-118.014411-20.607722-57.829221-59.160203-101.885628-114.916452-129.073262-43.77541-21.349712-89.521794-28.133621-138.289138-19.378739-74.392998 13.36282-127.793279 54.015273-162.915806 119.57639-16.153782 30.129594-25.395658 62.821154-25.446657 97.27869-0.229997 142.052087 0.127998 284.104174-0.332996 426.156261-0.075999 22.067703-0.409994 44.825396-5.605924 66.04711-9.189876 37.375497-35.532521 61.234175-71.423038 73.650008-35.173526 12.159836-68.709075 6.527912-99.070666-14.489804-30.386591-21.016717-47.359362-50.661318-47.692358-87.728819-0.74199-81.969896-0.229997-163.965792-0.229997-245.936688l0.819989-0.025z" fill="#2C8BCE" p-id="54891"></path><path d="M600.574807 454.792665c0.229997 62.053164-55.909247 115.914439-122.648348 109.975519-56.063245-4.991933-106.570565-53.939274-101.553633-121.086369 4.45494-59.775195 53.682277-106.18757 119.60139-103.21761 58.291215 2.636964 106.95556 54.169271 104.600591 114.32846z" fill="#2C8BCE" p-id="54892"></path></svg>