<?xml version="1.0" standalone="no"?><!DOCTYPE svg PUBLIC "-//W3C//DTD SVG 1.1//EN" "http://www.w3.org/Graphics/SVG/1.1/DTD/svg11.dtd"><svg t="1699509117867" class="icon" viewBox="0 0 1024 1024" version="1.1" xmlns="http://www.w3.org/2000/svg" p-id="25294" xmlns:xlink="http://www.w3.org/1999/xlink" width="128" height="128"><path d="M247.466667 115.2h25.6l51.2 307.2H298.666667L247.466667 115.2z m516.266666 0h25.6l-46.933333 307.2h-25.6l46.933333-307.2z" fill="#96CAFF" p-id="25295"></path><path d="M273.066667 448h51.2L256 89.6h-25.6l42.666667 358.4z m-42.666667-384H256c12.8 0 21.333333 8.533333 25.6 21.333333l68.266667 358.4c4.266667 12.8-8.533333 25.6-21.333334 29.866667H277.333333c-12.8 0-25.6-8.533333-25.6-21.333333L204.8 93.866667c0-17.066667 8.533333-29.866667 25.6-29.866667-4.266667 0-4.266667 0 0 0z m554.666667 25.6l-46.933334 358.4h-46.933333l68.266667-358.4h25.6z m0-25.6h-25.6c-12.8 0-21.333333 8.533333-25.6 21.333333l-68.266667 358.4c-4.266667 12.8 8.533333 25.6 21.333333 29.866667H738.133333c12.8 0 25.6-8.533333 25.6-21.333333L810.666667 93.866667c0-17.066667-8.533333-29.866667-25.6-29.866667 4.266667 0 4.266667 0 0 0z" fill="#0276F7" p-id="25296"></path><path d="M59.733333 704h930.133334c4.266667 0 8.533333 4.266667 8.533333 8.533333v162.133334c0 4.266667-4.266667 8.533333-8.533333 8.533333H59.733333c-4.266667 0-8.533333-4.266667-8.533333-8.533333v-162.133334c0-4.266667 4.266667-8.533333 8.533333-8.533333z" fill="#90C3F9" p-id="25297"></path><path d="M153.6 883.2h68.266667l-25.6 76.8h-17.066667l-25.6-76.8zM844.8 883.2h68.266667l-25.6 76.8h-17.066667l-25.6-76.8z" fill="#96CAFF" p-id="25298"></path><path d="M68.266667 678.4L243.2 426.666667c12.8-21.333333 38.4-29.866667 64-29.866667h439.466667c25.6 0 46.933333 12.8 64 29.866667l174.933333 251.733333" fill="#B5D6FB" p-id="25299"></path><path d="M742.4 396.8l187.733333 256h59.733334l-183.466667-256h-64z" fill="#90C3F9" p-id="25300"></path><path d="M460.8 806.4h25.6v-25.6h-25.6v25.6z m-25.6-51.2H512v76.8h-76.8v-76.8z m281.6 51.2h25.6v-25.6h-25.6v25.6z m-25.6-51.2H768v76.8h-76.8v-76.8z m-102.4 51.2h25.6v-25.6h-25.6v25.6z m-25.6-51.2H640v76.8h-76.8v-76.8z m281.6 51.2h25.6v-25.6h-25.6v25.6z m-25.6-51.2H896v76.8h-76.8v-76.8zM204.8 883.2H213.333333l12.8 17.066667-4.266666 8.533333h-25.6l8.533333-25.6z m-76.8 0h-8.533333l-12.8 17.066667 4.266666 8.533333h25.6l-8.533333-25.6z m17.066667 51.2h38.4l8.533333-25.6H136.533333l8.533334 25.6z m-42.666667-51.2h128l-25.6 76.8H128l-25.6-76.8zM913.066667 908.8l4.266666-8.533333-12.8-17.066667H896l-8.533333 25.6h25.6z m-93.866667-25.6H810.666667l-12.8 17.066667 4.266666 8.533333h25.6l-8.533333-25.6z m17.066667 51.2h38.4l8.533333-25.6h-55.466667l8.533334 25.6z m-42.666667-51.2h128l-25.6 76.8h-76.8l-25.6-76.8zM204.8 806.4h25.6v25.6h-25.6v-25.6z m76.8 0h25.6v25.6h-25.6v-25.6z m-153.6 0h25.6v25.6H128v-25.6z m230.4 0H384v25.6h-25.6v-25.6z m-153.6-51.2h25.6v25.6h-25.6v-25.6z m76.8 0h25.6v25.6h-25.6v-25.6z m-153.6 0h25.6v25.6H128v-25.6z m230.4 0H384v25.6h-25.6v-25.6z" fill="#0276F7" p-id="25301"></path><path d="M51.2 678.4c-12.8 0-25.6 12.8-25.6 25.6v153.6c0 12.8 12.8 25.6 25.6 25.6h921.6c12.8 0 25.6-12.8 25.6-25.6v-153.6c0-12.8-12.8-25.6-25.6-25.6H51.2z m0-25.6h921.6c29.866667 0 51.2 21.333333 51.2 51.2v153.6c0 29.866667-21.333333 51.2-51.2 51.2H51.2c-29.866667 0-51.2-21.333333-51.2-51.2v-153.6c0-29.866667 21.333333-51.2 51.2-51.2z" fill="#0276F7" p-id="25302"></path><path d="M166.4 490.666667l17.066667-25.6 17.066666-21.333334c8.533333-12.8 25.6-21.333333 42.666667-21.333333h537.6c17.066667 0 29.866667 8.533333 42.666667 21.333333l166.4 234.666667h29.866666L844.8 426.666667c-12.8-21.333333-38.4-29.866667-64-29.866667H243.2c-25.6 0-46.933333 12.8-64 29.866667l-34.133333 46.933333-140.8 204.8h29.866666l132.266667-187.733333z" fill="#0276F7" p-id="25303"></path></svg>