<?xml version="1.0" standalone="no"?><!DOCTYPE svg PUBLIC "-//W3C//DTD SVG 1.1//EN" "http://www.w3.org/Graphics/SVG/1.1/DTD/svg11.dtd"><svg t="1699511079797" class="icon" viewBox="0 0 1024 1024" version="1.1" xmlns="http://www.w3.org/2000/svg" p-id="26276" xmlns:xlink="http://www.w3.org/1999/xlink" width="128" height="128"><path d="M296 857.296A160.512 160.512 0 0 1 141.856 1024H128V95.232h11.984A161.376 161.376 0 0 1 297.008 260.8v1.392zM668 619.2L896 1024h-48c-119.296 0-153.6-29.232-192-95.232L392 476.16h144c83.92 0 168-60.16 168-142.896a168.96 168.96 0 0 0-144-166.704H392C298.8 166.704 224 0 224 0h336c177.728 7.088 316.8 155.632 312 333.408A326.608 326.608 0 0 1 668 619.2z" fill="#409EFF" p-id="26277"></path></svg>