<?xml version="1.0" standalone="no"?><!DOCTYPE svg PUBLIC "-//W3C//DTD SVG 1.1//EN" "http://www.w3.org/Graphics/SVG/1.1/DTD/svg11.dtd"><svg t="1708480482738" class="icon" viewBox="0 0 1032 1024" version="1.1" xmlns="http://www.w3.org/2000/svg" p-id="7106" xmlns:xlink="http://www.w3.org/1999/xlink" width="129" height="128"><path d="M885.521167 446.633205c0-214.827645-174.801824-389.629468-389.629469-389.629468s-389.629468 174.801824-389.629468 389.629468c0 153.371941 89.260506 286.377456 218.36959 349.957164l-70.310082 122.025194a35.187971 35.187971 0 0 0 0 35.42042c6.375889 10.980321 18.064211 17.710695 30.638746 17.710695l427.529347-0.354485c12.574535 0 24.263826-6.729405 30.639715-17.709726a35.187971 35.187971 0 0 0 0-35.421389L671.400555 794.465396c126.984111-64.643163 214.119643-196.231706 214.119643-347.832191zM495.891698 177.965475c19.481183 0 35.420421 15.939238 35.420421 35.421389S515.372881 248.807285 495.891698 248.807285s-35.420421-15.939238-35.42042-35.420421A35.420421 35.420421 0 0 1 495.891698 177.965475z m0 445.77177c-97.584125 0-177.10404-79.519914-177.104039-177.10404S398.307573 269.527228 495.891698 269.527228s177.10404 79.519914 177.10404 177.105009S593.475824 623.737245 495.891698 623.737245z" fill="#FFAA56" p-id="7107"></path><path d="M414.102498 444.773611a87.169431 86.093385 90 1 0 172.18677 0 87.169431 86.093385 90 1 0-172.18677 0Z" fill="#FFAA56" p-id="7108"></path><path d="M138.605604 214.475501a71.0268 44.122739 0 1 0 142.053601 0 71.0268 44.122739 0 1 0-142.053601 0Z" fill="#00FF00" p-id="7109"></path><path d="M732.647054 210.170348a71.0268 44.122739 0 1 0 142.053601 0 71.0268 44.122739 0 1 0-142.053601 0Z" fill="#00FF00" p-id="7110"></path><path d="M500.342133 684.076223c40.820023-80.090383 200.753812 0 0 102.973073-200.754781-102.973073-40.820023-183.063457 0-102.973073z" fill="#FF5656" p-id="7111"></path><path d="M485.57289 739.601565c0.295404-0.847471 1.452808 0 0 1.089606-1.452808-1.089606-0.295404-1.937077 0-1.089606z" fill="#FF0000" p-id="7112"></path><path d="M498.189072 423.094815c23.959705-47.037071 117.834328 0 0 60.47651-117.833359-60.475542-23.958736-107.513582 0-60.475542zM496.036979 121.93165c17.748468-36.866448 87.284687 0 0 47.400273-87.284687-47.400273-17.747499-84.266721 0-47.400273z" fill="#FF5656" p-id="7113"></path><path d="M36.678005 108.627748a59.189323 34.437354 29.827 1 0 102.697165 58.879506 59.189323 34.437354 29.827 1 0-102.697165-58.879506Z" fill="#007FFF" p-id="7114"></path><path d="M856.983383 161.797286a34.437354 59.189323 64.07 1 0 106.461344-51.763754 34.437354 59.189323 64.07 1 0-106.461344 51.763754Z" fill="#007FFF" p-id="7115"></path><path d="M758.218407 44.341065l23.07446 13.688354c6.798172 4.032026 7.717315 16.902933 1.561285 27.279855l-4.464963 7.528449-35.932777-21.315595c-5.811231-3.447997-14.114511-0.19855-18.537827 7.259196-4.427189 7.462589-3.298842 16.306314 2.513358 19.754311l35.932777 21.315595-7.913928 13.33968c-4.481428 7.552663-3.715314 16.286943 2.096886 19.73494 5.809294 3.44606 14.158095 0.11913 18.638554-7.433533l28.404328-47.882605c15.211865-25.642056 12.540636-55.293861-5.985568-66.283867L774.537312 17.639428c-5.816074-3.449934-14.187152-0.274096-18.667611 7.278566s-3.464462 15.974105 2.348706 19.422102zM222.289265 42.188972L245.365663 55.877326c6.798172 4.032026 7.717315 16.902933 1.562252 27.279855l-4.465931 7.52845-35.932777-21.315595c-5.811231-3.447997-14.114511-0.19855-18.537826 7.259196-4.427189 7.462589-3.298842 16.306314 2.514326 19.75431l35.93084 21.315595-7.91296 13.339681c-4.480459 7.552663-3.715314 16.286943 2.097855 19.73494 5.809294 3.447028 14.158095 0.11913 18.638554-7.433533l28.403359-47.882605c15.211865-25.642056 12.540636-55.293861-5.985567-66.283868L238.609138 15.488304c-5.816074-3.449934-14.187152-0.274096-18.66761 7.278566s-3.464462 15.974105 2.348706 19.422102z" fill="#007FFF" p-id="7116"></path></svg>