<?xml version="1.0" standalone="no"?><!DOCTYPE svg PUBLIC "-//W3C//DTD SVG 1.1//EN" "http://www.w3.org/Graphics/SVG/1.1/DTD/svg11.dtd"><svg t="1699516123517" class="icon" viewBox="0 0 1024 1024" version="1.1" xmlns="http://www.w3.org/2000/svg" p-id="63255" xmlns:xlink="http://www.w3.org/1999/xlink" width="128" height="128"><path d="M501.296 544c-17.648 0-32-14.352-32-32v-112c0-17.648 14.352-32 32-32s32 14.352 32 32v112c0 17.648-14.352 32-32 32z m0-160c-8.816 0-16 7.184-16 16v112c0 8.816 7.184 16 16 16s16-7.184 16-16v-112c0-8.816-7.184-16-16-16zM565.296 216h-128c-13.232 0-24-10.768-24-24v-32c0-13.232 10.768-24 24-24h128c13.232 0 24 10.768 24 24v32c0 13.232-10.768 24-24 24z m-128-64a8 8 0 0 0-8 8v32a8 8 0 0 0 8 8h128a8 8 0 0 0 8-8v-32a8 8 0 0 0-8-8h-128z" fill="#263238" p-id="63256"></path><path d="M453.296 240a8 8 0 0 1-8-8V208a8 8 0 0 1 16 0v24a8 8 0 0 1-8 8zM549.296 240a8 8 0 0 1-8-8V208a8 8 0 0 1 16 0v24a8 8 0 0 1-8 8z" fill="#263238" p-id="63257"></path><path d="M501.296 264c-132.544 0-240 107.456-240 240 0 132.544 107.456 240 240 240 132.544 0 240-107.456 240-240 0-132.544-107.456-240-240-240z m0 432c-106.032 0-192-85.968-192-192s85.968-192 192-192 192 85.968 192 192-85.968 192-192 192z" fill="#4DB6AC" p-id="63258"></path><path d="M501.296 752c-136.752 0-248-111.248-248-248S364.544 256 501.296 256s248 111.248 248 248S638.048 752 501.296 752z m0-480c-127.92 0-232 104.08-232 232S373.376 736 501.296 736s232-104.08 232-232S629.216 272 501.296 272z m0 432c-110.288 0-200-89.712-200-200S391.008 304 501.296 304s200 89.712 200 200S611.584 704 501.296 704z m0-384c-101.456 0-184 82.544-184 184S399.84 688 501.296 688s184-82.544 184-184S602.752 320 501.296 320z" fill="#263238" p-id="63259"></path><path d="M501.296 968c-255.856 0-464-208.144-464-464h128c0 185.28 150.72 336 336 336 185.264 0 336-150.72 336-336h128c0 255.856-208.16 464-464 464z" fill="#FFD740" p-id="63260"></path><path d="M501.296 976c-260.272 0-472-211.728-472-472a8 8 0 0 1 8-8h128a8 8 0 0 1 8 8c0 180.864 147.136 328 328 328s328-147.136 328-328a8 8 0 0 1 8-8h128a8 8 0 0 1 8 8c0 260.272-211.728 472-472 472zM45.36 512c4.288 247.76 207.168 448 455.936 448S952.96 759.76 957.232 512h-112.032c-4.272 186-156.896 336-343.904 336S161.648 698 157.392 512H45.36zM716.256 342.304a8 8 0 0 1-5.664-13.648l16.992-16.976-33.952-33.936-16.976 16.976a8 8 0 0 1-11.312-11.312l22.624-22.624a8 8 0 0 1 11.312 0l45.264 45.248a8 8 0 0 1 0 11.328l-22.64 22.64a8.096 8.096 0 0 1-5.648 2.304zM286.336 342.304a8.032 8.032 0 0 1-5.664-2.336l-22.624-22.64a8 8 0 0 1 0-11.312l45.248-45.248a8 8 0 0 1 11.312 0l22.64 22.624a8 8 0 0 1-11.312 11.312l-16.976-16.976-33.936 33.936 16.976 16.976a8 8 0 0 1-5.664 13.664zM55.904 464a8 8 0 0 1-7.968-8.848 453.76 453.76 0 0 1 7.904-48.864 8 8 0 1 1 15.632 3.424c-3.36 15.44-5.936 31.296-7.632 47.136a8 8 0 0 1-7.936 7.152z" fill="#263238" p-id="63261"></path><path d="M946.688 464a8 8 0 0 1-7.936-7.152C914.896 232.896 726.832 64 501.296 64 308.048 64 134.64 193.232 79.568 378.288a7.968 7.968 0 0 1-9.952 5.376 7.984 7.984 0 0 1-5.376-9.952C121.312 181.936 301.024 48 501.296 48c233.728 0 428.64 175.04 453.36 407.152a8 8 0 0 1-7.968 8.848zM357.296 512h-48a8 8 0 0 1 0-16h48a8 8 0 0 1 0 16zM693.296 512h-48a8 8 0 0 1 0-16h48a8 8 0 0 1 0 16zM501.296 704a8 8 0 0 1-8-8v-48a8 8 0 0 1 16 0v48a8 8 0 0 1-8 8zM501.296 976a8 8 0 0 1-8-8v-64a8 8 0 0 1 16 0v64a8 8 0 0 1-8 8zM825.232 843.952a8.032 8.032 0 0 1-5.664-2.336l-45.248-45.264a8 8 0 0 1 11.312-11.312l45.248 45.264a8 8 0 0 1-5.648 13.648zM927.152 696.4a7.888 7.888 0 0 1-3.056-0.608l-29.568-12.256a8 8 0 0 1 6.112-14.784l29.568 12.256a8 8 0 0 1-3.056 15.392zM75.44 696.4a8 8 0 0 1-3.056-15.392l29.568-12.256a8 8 0 0 1 6.112 14.784l-29.568 12.256a7.888 7.888 0 0 1-3.056 0.608zM177.344 843.952a8 8 0 0 1-5.664-13.648l45.264-45.264a8 8 0 0 1 11.312 11.312L183.008 841.6a8 8 0 0 1-5.664 2.352zM676.032 941.856a8 8 0 0 1-7.392-4.944l-12.256-29.568a8 8 0 0 1 14.784-6.112l12.256 29.568a8 8 0 0 1-7.392 11.056z" fill="#263238" p-id="63262"></path><path d="M326.56 941.856a8 8 0 0 1-7.392-11.056l12.256-29.568a8 8 0 0 1 14.784 6.112l-12.256 29.568a8 8 0 0 1-7.392 4.944z" fill="#263238" p-id="63263"></path><path d="M946.704 464a7.888 7.888 0 0 1-3.968-1.056l-56-32a8 8 0 1 1 7.936-13.888l50.176 28.672 35.712-42.848a8 8 0 0 1 12.272 10.256l-40 48a7.952 7.952 0 0 1-6.128 2.864z" fill="#263238" p-id="63264"></path></svg>