<?xml version="1.0" standalone="no"?><!DOCTYPE svg PUBLIC "-//W3C//DTD SVG 1.1//EN" "http://www.w3.org/Graphics/SVG/1.1/DTD/svg11.dtd"><svg t="1699518462290" class="icon" viewBox="0 0 1024 1024" version="1.1" xmlns="http://www.w3.org/2000/svg" p-id="70261" xmlns:xlink="http://www.w3.org/1999/xlink" width="128" height="128"><path d="M512 1024c282.76736 0 512-229.23264 512-512S794.76736 0 512 0 0 229.23264 0 512s229.23264 512 512 512z" fill="#25B6D2" p-id="70262"></path><path d="M843.91936 311.66464H180.03968v475.70944h663.87968V311.66464z" fill="#FFFFFF" p-id="70263"></path><path d="M835.95264 332.86144v446.52544H188.04736V332.86144h647.90528z m7.9872-7.9872H180.03968v462.49984h663.87968l0.02048-462.49984z" fill="#FFFFFF" p-id="70264"></path><path d="M180.03968 334.848v-82.65728c0-11.40736 9.33888-20.74624 20.74624-20.74624h622.3872c11.42784 0 20.76672 9.33888 20.76672 20.74624v82.6368H180.03968z" fill="#000000" p-id="70265"></path><path d="M791.61344 311.66464H402.432l37.23264-57.05728h351.92832v57.05728z" fill="#FFFFFF" p-id="70266"></path><path d="M249.93792 300.01152a17.65376 17.65376 0 1 0 0-35.30752 17.65376 17.65376 0 0 0 0 35.28704zM296.71424 300.01152a17.65376 17.65376 0 1 0 0-35.30752 17.65376 17.65376 0 0 0 0 35.28704zM343.49056 300.01152a17.65376 17.65376 0 1 0 0-35.30752 17.65376 17.65376 0 0 0 0 35.28704z" fill="#AAC1CE" p-id="70267"></path><path d="M459.65312 272.384l2.47808 10.79296c0.53248 2.53952 1.08544 5.12 1.536 7.72096h0.08192c0.49152-2.60096 1.26976-5.24288 1.96608-7.65952l3.072-10.8544h4.89472l2.9696 10.5472c0.73728 2.78528 1.37216 5.36576 1.90464 7.96672h0.1024a110.7968 110.7968 0 0 1 1.55648-7.9872l2.6624-10.52672h5.87776l-7.4752 23.77728h-5.57056l-2.82624-9.66656a69.0176 69.0176 0 0 1-1.82272-7.61856h-0.08192a63.5904 63.5904 0 0 1-1.82272 7.61856l-3.01056 9.66656h-5.61152l-7.02464-23.77728h6.144zM496.96768 272.384l2.49856 10.79296c0.512 2.53952 1.04448 5.12 1.49504 7.72096h0.12288c0.47104-2.60096 1.24928-5.24288 1.9456-7.65952l3.072-10.8544h4.87424l2.99008 10.5472c0.73728 2.78528 1.37216 5.36576 1.90464 7.96672h0.1024c0.38912-2.60096 0.9216-5.18144 1.55648-7.9872l2.6624-10.52672h5.89824l-7.4752 23.77728h-5.59104l-2.82624-9.66656a73.44128 73.44128 0 0 1-1.80224-7.61856h-0.1024a63.34464 63.34464 0 0 1-1.80224 7.61856l-3.01056 9.66656h-5.632l-7.02464-23.77728h6.144zM534.26176 272.384l2.47808 10.79296c0.53248 2.53952 1.08544 5.12 1.51552 7.72096h0.1024c0.49152-2.60096 1.26976-5.24288 1.9456-7.65952l3.072-10.8544h4.9152l2.9696 10.5472c0.73728 2.78528 1.37216 5.36576 1.90464 7.96672h0.1024c0.36864-2.60096 0.94208-5.18144 1.55648-7.9872l2.64192-10.52672h5.89824l-7.4752 23.77728h-5.55008l-2.84672-9.66656a69.46816 69.46816 0 0 1-1.80224-7.61856h-0.1024a64.02048 64.02048 0 0 1-1.80224 7.61856l-3.03104 9.66656h-5.61152l-7.02464-23.77728h6.144zM564.30592 292.864c0-2.2528 1.55648-3.87072 3.6864-3.87072 2.21184 0 3.70688 1.55648 3.70688 3.85024 0 2.19136-1.45408 3.87072-3.6864 3.87072s-3.70688-1.67936-3.70688-3.87072z" fill="#000000" p-id="70268"></path><path d="M671.3344 787.37408H352.6656l44.11392-33.52576h230.46144l44.11392 33.52576z" fill="#CFDCE5" p-id="70269"></path><path d="M751.08352 299.99104l-3.70688-3.62496 12.82048-13.18912-13.59872-13.23008 3.62496-3.72736 17.3056 16.87552-16.44544 16.896z" fill="#000000" p-id="70270"></path><path d="M761.01632 280.53504h-34.26304v5.20192h34.26304v-5.20192z" fill="#000000" p-id="70271"></path><path d="M519.9872 494.75584h-15.9744v46.8992h15.9744v-46.8992z" fill="#AAC1CE" p-id="70272"></path><path d="M382.6688 595.00544h-16.01536v-61.3376h290.67264v61.2352h-16.01536v-45.24032h-258.6624v45.34272z" fill="#AAC1CE" p-id="70273"></path><path d="M583.10656 398.82752h-142.82752v98.87744h142.82752v-98.87744z" fill="#E04F5F" p-id="70274"></path><path d="M446.0544 585.60512h-142.80704v98.87744h142.82752v-98.87744z" fill="#FFD07D" p-id="70275"></path><path d="M720.75264 585.60512h-142.82752v98.87744h142.82752v-98.87744z" fill="#32BEA6" p-id="70276"></path></svg>