<?xml version="1.0" standalone="no"?><!DOCTYPE svg PUBLIC "-//W3C//DTD SVG 1.1//EN" "http://www.w3.org/Graphics/SVG/1.1/DTD/svg11.dtd"><svg t="1699514717920" class="icon" viewBox="0 0 1024 1024" version="1.1" xmlns="http://www.w3.org/2000/svg" p-id="49769" xmlns:xlink="http://www.w3.org/1999/xlink" width="128" height="128"><path d="M757.9 326.1L601.5 511c-13.9 16.6-38.1 20.1-56.2 8l-129.7-86.4c-1-0.6-2.3-0.3-2.9 0.7l-90.6 169.9c-7.7 14.4-22.5 22.6-37.7 22.6-6.8 0-13.6-1.6-20.1-5-20.8-11.1-28.7-37-17.6-57.9l113.8-213.3c5.7-10.7 15.6-18.4 27.3-21.3 11.8-3 24.2-0.9 34.1 5.8l137.5 91.7c0.8 0.6 2 0.4 2.6-0.4l130.7-154.5c15.2-17.9 42.1-20.2 60.2-5 17.9 15.3 20.2 42.1 5 60.2z" fill="#F9DB88" p-id="49770"></path><path d="M910.2 113.8H113.8c-15.6 0-28.4 12.8-28.4 28.4v597.3c0 15.6 12.8 28.4 28.4 28.4h325.1c1.1 0 2 0.9 2 2v52.9c0 1.1-0.9 2-2 2h-54.2c-23.4 0-43 18.6-43.4 42-0.3 23.9 18.8 43.3 42.7 43.3h255.3c23.4 0 43-18.6 43.3-42 0.3-23.9-18.8-43.3-42.7-43.3H585c-1.1 0-2-0.9-2-2V770c0-1.1 0.9-2 2-2h325.1c15.6 0 28.4-12.8 28.4-28.4V142.2c0.2-15.6-12.6-28.4-28.3-28.4zM791.5 354.5L635.1 539.3c-16.5 19.6-40.6 30.8-66.2 30.8-17.1 0-33.8-5-48.1-14.6l-91.2-60.7-68.8 129c-15.1 28.3-44.4 45.9-76.5 45.9-14.4 0-28.1-3.4-40.8-10.2-20.4-10.9-35.3-29.1-42.1-51.2-6.8-22.2-4.5-45.6 6.3-66.1l113.8-213.3c11.4-21.4 31.6-37.2 55.2-43.3 7-1.8 14.2-2.7 21.4-2.7 17.2 0 33.8 5 48 14.6l106.2 70.9 106.5-125.9c16.5-19.4 40.6-30.6 66.1-30.6 20.4 0 40.3 7.3 55.9 20.4l0.1 0.1 0.1 0.1c17.6 15 28.3 35.9 30.3 58.9 2.3 22.9-4.8 45.4-19.8 63.1z" fill="#009F72" p-id="49771"></path></svg>