<?xml version="1.0" standalone="no"?><!DOCTYPE svg PUBLIC "-//W3C//DTD SVG 1.1//EN" "http://www.w3.org/Graphics/SVG/1.1/DTD/svg11.dtd"><svg t="1702002482484" class="icon" viewBox="0 0 1083 1024" version="1.1" xmlns="http://www.w3.org/2000/svg" p-id="20347" xmlns:xlink="http://www.w3.org/1999/xlink" width="135.375" height="128"><path d="M201.216 701.44h3.584c16.384 0 32.256 3.072 46.592 9.216 43.008-110.592 146.944-187.904 266.24-197.632v190.976c8.192-2.048 16.896-2.56 26.112-2.56 8.192 0 16.384 1.024 24.064 2.56v-190.464c118.784 9.728 223.232 87.04 265.728 198.144 14.336-6.144 30.208-9.728 47.104-9.728h1.536c-48.64-134.656-173.568-228.352-315.392-238.08V404.992c78.336-11.776 138.752-79.872 138.752-161.28 0-90.112-73.216-163.84-163.328-163.84-90.112 0-163.84 73.728-163.84 163.84 0 81.408 60.416 149.504 138.752 161.28v58.368c-142.336 10.24-267.264 104.448-315.904 238.08z m226.816-457.728c0-62.976 50.688-113.664 113.664-113.664S655.36 180.736 655.36 243.712c0 62.976-50.688 113.664-113.664 113.664-62.464 0-113.664-51.2-113.664-113.664z" fill="#5A5A5A" p-id="20348"></path><path d="M205.824 747.008c40.448 0 73.728 32.768 73.728 73.728s-32.768 73.728-73.728 73.728-73.728-32.768-73.728-73.728 32.768-73.728 73.728-73.728m0-46.08c-66.048 0-119.808 53.76-119.808 119.808s53.76 119.808 119.808 119.808 119.808-53.76 119.808-119.808-54.272-119.808-119.808-119.808zM543.232 745.472c40.448 0 73.728 32.768 73.728 73.728 0 40.448-32.768 73.728-73.728 73.728S469.504 860.16 469.504 819.2c0.512-40.96 33.28-73.728 73.728-73.728m0-46.08c-66.048 0-119.808 53.76-119.808 119.808 0 66.048 53.76 119.808 119.808 119.808s119.808-53.76 119.808-119.808c0-66.048-53.76-119.808-119.808-119.808zM876.544 746.496c40.448 0 73.728 32.768 73.728 73.728s-32.768 73.728-73.728 73.728c-40.448 0-73.728-32.768-73.728-73.728s32.768-73.728 73.728-73.728m0-46.08c-66.048 0-119.808 53.76-119.808 119.808 0 66.048 53.76 119.808 119.808 119.808 66.048 0 119.808-53.76 119.808-119.808-0.512-66.56-54.272-119.808-119.808-119.808z" fill="#339DFF" p-id="20349"></path></svg>