<?xml version="1.0" standalone="no"?><!DOCTYPE svg PUBLIC "-//W3C//DTD SVG 1.1//EN" "http://www.w3.org/Graphics/SVG/1.1/DTD/svg11.dtd"><svg t="1699519507594" class="icon" viewBox="0 0 1024 1024" version="1.1" xmlns="http://www.w3.org/2000/svg" p-id="83128" xmlns:xlink="http://www.w3.org/1999/xlink" width="128" height="128"><path d="M874.6496 874.6496H640a64 64 0 0 1-64-64V576h234.6496a64 64 0 0 1 64 64v234.6496z" fill="#3B5EDB" p-id="83129"></path><path d="M640 128h256v256a85.3504 85.3504 0 0 1-85.3504 85.3504h-256v-256A85.4016 85.4016 0 0 1 640 128z" fill="#1BA1F0" p-id="83130"></path><path d="M469.3504 554.6496v256A85.3504 85.3504 0 0 1 384 896h-256v-256a85.3504 85.3504 0 0 1 85.3504-85.3504h256z m-42.7008 42.7008H213.3504a42.6496 42.6496 0 0 0-42.3936 37.6832l-0.3072 4.9664v213.3504H384a42.6496 42.6496 0 0 0 42.3936-37.6832l0.256-5.0176v-213.2992zM384 128h-256v256a85.3504 85.3504 0 0 0 85.3504 85.3504h256v-256A85.3504 85.3504 0 0 0 384 128z" fill="#3B5EDB" p-id="83131"></path></svg>