<?xml version="1.0" standalone="no"?><!DOCTYPE svg PUBLIC "-//W3C//DTD SVG 1.1//EN" "http://www.w3.org/Graphics/SVG/1.1/DTD/svg11.dtd"><svg t="1699513319810" class="icon" viewBox="0 0 1024 1024" version="1.1" xmlns="http://www.w3.org/2000/svg" p-id="48544" xmlns:xlink="http://www.w3.org/1999/xlink" width="128" height="128"><path d="M448 729.6h128l64 261.674667H384z" fill="#CACBCC" p-id="48545"></path><path d="M145.066667 958.592h733.866666c9.386667 0 17.066667 7.637333 17.066667 17.066667V1024H128v-48.341333c0-9.429333 7.68-17.066667 17.066667-17.066667z" fill="#EDEEF0" p-id="48546"></path><path d="M0 0m68.266667 0l887.466666 0q68.266667 0 68.266667 68.266667l0 716.8q0 68.266667-68.266667 68.266666l-887.466666 0q-68.266667 0-68.266667-68.266666l0-716.8q0-68.266667 68.266667-68.266667Z" fill="#111314" fill-opacity=".72" p-id="48547"></path><path d="M0 725.333333h1024v59.733334a68.266667 68.266667 0 0 1-68.266667 68.266666H68.266667A68.266667 68.266667 0 0 1 0 785.066667V725.333333z" fill="#EDEEF0" p-id="48548"></path><path d="M85.333333 85.333333m34.133334 0l785.066666 0q34.133333 0 34.133334 34.133334l0 529.066666q0 34.133333-34.133334 34.133334l-785.066666 0q-34.133333 0-34.133334-34.133334l0-529.066666q0-34.133333 34.133334-34.133334Z" fill="#FFFFFF" p-id="48549"></path><path d="M386.432 459.349333c17.450667-26.624 42.325333-56.234667 72.746667-84.565333 4.437333-4.138667 8.618667-8.106667 12.501333-11.861333a160.981333 160.981333 0 0 0-4.693333 23.04h84.48a96.384 96.384 0 0 0 0-19.541334 58.496 58.496 0 0 0-4.992-19.029333c-5.632-12.544-14.592-19.84-26.88-21.845333a39.765333 39.765333 0 0 0-12.373334 0.042666c16.554667-20.736-2.688-11.008-56.96 39.637334a506.112 506.112 0 0 0-66.645333 74.88 179.456 179.456 0 0 1-0.64-19.584c0-15.232 1.877333-30.293333 5.674667-45.226667 3.84-14.890667 9.728-28.757333 17.664-41.642667 9.6-14.890667 21.333333-26.752 35.285333-35.541333a128.042667 128.042667 0 0 1 46.208-17.792 137.813333 137.813333 0 0 1 43.52-1.28c15.061333 1.877333 29.056 6.016 41.984 12.458667 11.605333 5.76 22.016 13.354667 31.317333 22.869333 9.258667 9.472 16.554667 20.48 21.845334 33.024 8.32 18.602667 11.093333 38.4 8.448 59.434667a25.856 25.856 0 0 1-8.192 18.048 27.136 27.136 0 0 1-18.645334 6.357333h-144.128c0 10.837333 1.066667 21.930667 3.242667 33.28 2.133333 11.306667 6.528 21.589333 13.184 30.72 4.608 6.4 9.941333 11.264 15.872 14.506667 5.973333 3.2 12.288 4.778667 18.901333 4.778666 6.613333-0.341333 13.098667-2.261333 19.370667-5.845333a37.973333 37.973333 0 0 0 14.933333-15.488 85.333333 85.333333 0 0 0 9.941334-35.541333h79.530666a114.517333 114.517333 0 0 1-13.226666 42.666666 113.066667 113.066667 0 0 1-28.544 35.541334c-11.946667 9.514667-25.6 15.872-40.96 19.072-15.445333 3.2-30.421333 4.693333-45.013334 4.309333a158.72 158.72 0 0 1-58.154666-11.946667 100.693333 100.693333 0 0 1-45.738667-37.845333 125.269333 125.269333 0 0 1-18.858667-41.386667 172.8 172.8 0 0 1-2.005333-8.704z" fill="#5BADFF" p-id="48550"></path><path d="M655.104 326.613333l-12.245333-4.48c7.594667-21.717333 7.168-37.290667-0.256-44.714666-21.632-21.632-100.394667 17.109333-172.885334 89.6-72.533333 72.533333-111.232 151.253333-89.6 172.885333 5.205333 5.205333 14.378667 6.997333 27.264 4.864l2.389334 12.8c-16.64 2.730667-29.994667 0.128-38.698667-8.618667-29.482667-29.44 11.946667-113.706667 89.386667-191.146666 77.482667-77.482667 161.706667-118.912 191.146666-89.429334 11.946667 11.946667 12.544 32.341333 3.498667 58.24z" fill="#FFC13C" p-id="48551"></path><path d="M428.245333 552.661333c-25.344 8.618667-45.824 8.149333-57.6-3.626666-14.293333-14.250667-11.946667-41.301333 2.986667-74.24a149.333333 149.333333 0 0 0 6.4 18.432c-8.064 21.632-8.661333 38.442667-0.341333 46.762666 6.826667 6.869333 19.541333 7.68 35.925333 3.157334 4.010667 3.456 8.234667 6.656 12.629333 9.514666z m144.682667-279.296c34.730667-16.64 63.445333-19.754667 78.293333-4.906666 15.274667 15.274667 11.52 45.269333-6.485333 81.408a128.426667 128.426667 0 0 0-3.669333-9.258667 124.714667 124.714667 0 0 0-3.157334-6.826667c11.605333-26.197333 13.738667-46.762667 4.266667-56.277333-9.301333-9.258667-29.013333-7.424-54.272 3.370667a130.133333 130.133333 0 0 0-14.933333-7.509334zM782.634667 612.266667l86.826666 88.746666a8.533333 8.533333 0 0 1-6.101333 14.506667h-43.178667a8.533333 8.533333 0 0 0-6.272 2.773333l-31.146666 33.706667a8.533333 8.533333 0 0 1-14.762667-5.802667V618.24a8.533333 8.533333 0 0 1 14.634667-5.973333z" fill="#FFC13C" p-id="48552"></path><path d="M243.2 187.733333a29.866667 29.866667 0 1 0 0-59.733333 29.866667 29.866667 0 0 0 0 59.733333z" fill="#E6C029" p-id="48553"></path><path d="M157.866667 187.733333a29.866667 29.866667 0 1 0 0-59.733333 29.866667 29.866667 0 0 0 0 59.733333z" fill="#EA7E7A" p-id="48554"></path><path d="M328.533333 187.733333a29.866667 29.866667 0 1 0 0-59.733333 29.866667 29.866667 0 0 0 0 59.733333z" fill="#7FD162" p-id="48555"></path></svg>