<?xml version="1.0" standalone="no"?><!DOCTYPE svg PUBLIC "-//W3C//DTD SVG 1.1//EN" "http://www.w3.org/Graphics/SVG/1.1/DTD/svg11.dtd"><svg t="1702002902027" class="icon" viewBox="0 0 1024 1024" version="1.1" xmlns="http://www.w3.org/2000/svg" p-id="21421" xmlns:xlink="http://www.w3.org/1999/xlink" width="128" height="128"><path d="M923.4 385c-25-59.5-133.4-26.4-133.4-26.4l-160.1 52.7c-34.6 10.7-53.4 0-53.4 0-36.7-28.6-240.1-184.4-240.1-184.4-112.4-25.1-80 26.3-80 26.3l160.1 237.1-106.7 26.4c-20.2 6.5-35.4 6.9-51.7 1.4-14.1-9.4-60.9-37.5-81.7-54.2-71.4-57.1-80 0-80 0s-4.4 24.2 67.8 93.2C248.8 660.3 363.1 622 363.1 622S776 502.5 816.6 490.2c40.7-12.1 133-42.9 106.8-105.2zM839.3 724.9H253.5c-1.4 0-2.5 1.1-2.5 2.5v56.5c0 1.4 1.1 2.5 2.5 2.5h585.8c1.4 0 2.5-1.1 2.5-2.5v-56.5c0-1.4-1.1-2.5-2.5-2.5z" fill="#44B899" p-id="21422"></path></svg>