<?xml version="1.0" standalone="no"?><!DOCTYPE svg PUBLIC "-//W3C//DTD SVG 1.1//EN" "http://www.w3.org/Graphics/SVG/1.1/DTD/svg11.dtd"><svg t="1699512275465" class="icon" viewBox="0 0 1024 1024" version="1.1" xmlns="http://www.w3.org/2000/svg" p-id="47173" xmlns:xlink="http://www.w3.org/1999/xlink" width="128" height="128"><path d="M535 863H158c-44.112 0-80-35.888-80-80V231c0-44.112 35.888-80 80-80h668c44.112 0 80 35.888 80 80v376c0 16.568-13.432 30-30 30s-30-13.432-30-30V231c0-11.028-8.972-20-20-20H158c-11.028 0-20 8.972-20 20v552c0 11.028 8.972 20 20 20h377c16.568 0 30 13.432 30 30s-13.432 30-30 30z" fill="#808080" p-id="47174"></path><path d="M782.628 677.485C673.117 674.714 639 752 608.628 776.486c59.189 49.749 89.372 96.988 174 96.988 68.872 0 117.721-51.221 163-96.988C914 757.5 882 680 782.628 677.485z m-5.5 165.496c-37.003 0-67-29.998-67-67 0-37.003 29.997-67 67-67s67 29.997 67 67c0 37.002-29.997 67-67 67z" fill="#808080" p-id="47175"></path><path d="M776.126 776.557m-41.748 0a41.748 41.748 0 1 0 83.496 0 41.748 41.748 0 1 0-83.496 0Z" fill="#808080" p-id="47176"></path><path d="M333.601 633.083c-16.568 0-30-13.432-30-30V274.101c0-16.568 13.432-30 30-30s30 13.432 30 30v328.982c0 16.568-13.432 30-30 30zM460.094 633.083c-16.568 0-30-13.432-30-30V350.597c0-16.568 13.432-30 30-30s30 13.432 30 30v252.486c0 16.568-13.432 30-30 30zM586.588 633.083c-16.568 0-30-13.432-30-30V438.592c0-16.568 13.432-30 30-30s30 13.432 30 30v164.491c0 16.568-13.432 30-30 30zM713.082 633.083c-16.568 0-30-13.432-30-30v-91.994c0-16.568 13.432-30 30-30s30 13.432 30 30v91.994c0 16.568-13.432 30-30 30z" fill="#33DEB4" opacity=".4" p-id="47177"></path><path d="M293.601 673.083c-16.568 0-30-13.432-30-30V314.101c0-16.568 13.432-30 30-30s30 13.432 30 30v328.982c0 16.568-13.432 30-30 30zM420.094 673.083c-16.568 0-30-13.432-30-30V390.597c0-16.568 13.432-30 30-30s30 13.432 30 30v252.486c0 16.568-13.431 30-30 30zM546.588 673.083c-16.568 0-30-13.432-30-30V478.592c0-16.568 13.432-30 30-30s30 13.432 30 30v164.491c0 16.568-13.432 30-30 30zM673.082 673.083c-16.568 0-30-13.432-30-30v-91.994c0-16.568 13.432-30 30-30s30 13.432 30 30v91.994c0 16.568-13.432 30-30 30z" fill="#33DEB4" p-id="47178"></path></svg>